<?xml version="1.0" standalone="no"?>
<!DOCTYPE svg PUBLIC "-//W3C//DTD SVG 20010904//EN"
 "http://www.w3.org/TR/2001/REC-SVG-20010904/DTD/svg10.dtd">
<svg version="1.0" xmlns="http://www.w3.org/2000/svg"
 width="2048.000000pt" height="2048.000000pt" viewBox="0 0 2048.000000 2048.000000"
 preserveAspectRatio="xMidYMid meet">

<g transform="translate(0.000000,2048.000000) scale(0.100000,-0.100000)"
fill="#000000" stroke="none">
<path d="M0 10240 l0 -10240 10240 0 10240 0 0 10240 0 10240 -10240 0 -10240
0 0 -10240z m10268 5980 c22 -42 23 -53 19 -174 -6 -128 0 -166 26 -166 18 0
61 -47 82 -90 22 -43 22 -95 1 -177 -23 -90 -24 -89 109 -128 241 -70 470
-305 555 -568 23 -71 39 -87 88 -87 43 0 56 -21 47 -77 -9 -65 -18 -73 -81
-73 -49 0 -54 -2 -54 -22 0 -16 1168 -1372 3730 -4332 2052 -2370 3729 -4310
3728 -4311 -8 -7 -7278 -20 -9908 -18 -2953 1 -3267 4 -3320 33 -14 7 -20 21
-20 44 l0 33 93 7 c50 3 840 9 1754 12 1510 6 1663 9 1667 23 13 48 18 86 31
238 8 93 15 199 15 236 0 67 0 68 -35 88 -43 25 -55 46 -55 92 0 68 39 89 136
73 l41 -7 6 233 c4 128 11 303 17 388 24 378 61 1010 75 1290 8 168 24 442 35
610 11 168 36 591 55 940 33 595 51 884 107 1726 18 272 20 349 10 380 -16 53
-206 381 -245 422 -17 17 -38 32 -46 32 -31 0 -61 42 -61 86 0 58 19 76 66 62
20 -5 37 -8 38 -6 1 2 -1 61 -6 132 -7 112 -13 162 -35 278 -8 43 25 51 248
56 l196 4 6 127 c3 69 3 129 0 133 -2 5 -44 8 -94 8 -101 0 -95 -7 -83 98 l7
52 94 -6 94 -7 -3 384 c-2 211 -6 389 -11 396 -6 9 -16 8 -42 -3 -70 -29 -111
-9 -122 60 -10 63 35 84 114 51 19 -8 37 -15 38 -15 1 0 4 40 7 89 4 81 8 98
46 175 30 60 55 95 86 121 25 20 54 56 65 80 14 31 39 57 83 88 83 59 222 130
318 162 117 39 117 39 91 115 -41 122 -23 192 64 251 l40 27 5 182 c4 146 8
183 20 190 26 17 44 6 68 -40z m-3192 -1791 c17 -14 19 -80 2 -97 -16 -16 -63
-15 -76 1 -14 17 -26 83 -18 103 5 13 15 15 42 11 20 -3 42 -11 50 -18z m938
10 c31 -14 54 -65 39 -88 -6 -9 -27 -17 -49 -19 -93 -8 -142 25 -109 74 26 40
74 53 119 33z m416 -4 c40 -20 49 -60 22 -88 -32 -31 -119 -36 -154 -7 -80 62
35 145 132 95z m3686 -6 c19 -16 28 -67 14 -84 -14 -17 -95 -20 -134 -5 -33
12 -54 55 -40 78 6 9 22 20 35 24 31 9 108 1 125 -13z m412 9 c19 -19 14 -76
-8 -98 -37 -37 -125 -20 -136 25 -7 28 15 61 51 76 30 12 79 11 93 -3z m277
-2 c19 -8 40 -26 47 -41 10 -22 8 -29 -12 -50 -45 -48 -97 -27 -115 47 -14 57
13 72 80 44z m362 -1 c26 -19 39 -70 23 -90 -29 -35 -110 -3 -110 43 0 26 28
62 48 62 10 0 27 -7 39 -15z m361 3 c14 -14 16 -57 2 -92 -19 -52 -98 -39
-121 21 -13 34 10 70 48 76 52 8 59 7 71 -5z m-6126 -8 c47 -13 61 -36 43 -70
-13 -26 -52 -50 -80 -50 -21 0 -55 50 -55 81 0 16 7 32 18 38 22 13 29 13 74
1z m1504 -1 c33 -9 46 -17 50 -34 8 -30 -11 -64 -42 -75 -66 -25 -182 -2 -205
41 -14 26 5 57 39 65 15 3 32 7 37 9 22 7 78 4 121 -6z m5092 -1 c16 -16 15
-63 -1 -76 -20 -17 -184 -27 -202 -12 -18 15 -20 66 -3 76 37 23 186 32 206
12z m-7202 -19 c17 -14 18 -61 2 -77 -16 -16 -63 -15 -76 1 -15 18 -25 64 -18
83 5 13 15 15 42 11 20 -3 42 -11 50 -18z m932 9 c7 -7 12 -27 12 -45 0 -27
-4 -33 -21 -33 -33 0 -59 19 -59 43 0 27 17 47 40 47 9 0 21 -5 28 -12z m3953
2 c25 -14 25 -54 -1 -80 -40 -40 -168 -17 -191 34 -20 43 1 56 93 56 44 0 88
-5 99 -10z m-2973 -9467 l2 -173 80 0 80 0 0 -100 0 -100 -80 0 -80 0 0 -165
0 -166 -102 3 -103 3 -3 425 c-1 234 0 431 3 438 3 9 30 12 102 10 l98 -3 3
-172z m1430 -205 l2 -378 -105 0 -105 0 0 120 0 120 -137 0 -136 0 -51 -39
c-127 -97 -300 -153 -603 -195 l-41 -6 -7 68 c-3 37 -9 79 -11 95 -3 15 -3 27
0 27 32 0 249 36 309 51 194 49 304 141 295 247 l-3 37 -272 3 -273 2 0 90 0
90 283 0 c155 0 297 -4 316 -10 94 -27 155 -106 155 -202 l1 -58 88 0 87 0 0
153 c0 85 3 157 7 161 4 4 50 5 103 4 l95 -3 3 -377z m1432 -58 l0 -440 -100
0 -100 0 0 110 0 110 -80 0 -80 0 0 100 0 100 80 0 80 0 0 60 0 60 -80 0 -80
0 0 100 0 100 80 0 80 0 0 70 0 70 100 0 100 0 0 -440z m1400 -290 l0 -730
-100 0 -100 0 0 335 0 335 -95 0 -95 0 0 -42 c-1 -67 -26 -190 -49 -244 -70
-158 -178 -221 -365 -212 -187 9 -293 103 -343 305 -24 98 -24 528 0 626 50
202 156 296 343 305 187 9 295 -54 365 -212 26 -60 48 -179 49 -263 l0 -63 95
0 95 0 0 295 0 295 100 0 100 0 0 -730z m-2016 670 c252 -97 248 -405 -5 -459
-28 -6 -110 -11 -184 -11 -123 0 -135 -2 -145 -19 -20 -38 -12 -70 22 -91 46
-28 104 -34 202 -21 72 10 250 54 309 76 15 7 17 -2 17 -93 0 -56 -3 -103 -7
-105 -5 -3 -62 -17 -128 -33 -99 -23 -144 -28 -260 -28 -133 -1 -143 0 -200
27 -111 52 -169 130 -169 230 -1 48 -4 57 -18 57 -16 0 -18 11 -18 90 l0 90
250 0 c279 0 320 7 320 54 0 34 -40 62 -108 77 -69 14 -161 6 -277 -25 -47
-13 -87 -20 -90 -17 -5 8 -65 160 -65 165 0 5 112 36 189 51 102 22 291 14
365 -15z m-3054 -70 l0 -90 -64 0 c-64 0 -65 0 -75 -32 -55 -169 -53 -295 5
-349 22 -21 36 -24 102 -25 l77 -2 3 -92 3 -93 -105 5 c-92 4 -113 9 -163 34
-107 55 -163 163 -163 312 0 77 15 172 35 225 6 13 2 17 -19 17 l-26 0 0 90 0
90 195 0 195 0 0 -90z m490 0 l0 -89 -92 -3 -93 -3 -18 -55 c-27 -81 -34 -237
-13 -282 25 -52 55 -63 158 -61 l88 2 0 -96 0 -95 -117 4 c-94 3 -128 9 -168
27 -68 30 -118 81 -151 155 -25 55 -28 72 -28 166 0 66 7 128 17 166 21 77 21
74 -3 74 -19 0 -20 7 -20 90 l0 90 220 0 220 0 0 -90z m1462 -665 c107 -16
155 -33 205 -71 97 -74 97 -234 0 -308 -68 -52 -97 -56 -399 -56 -249 0 -279
-2 -285 -16 -9 -24 8 -46 53 -69 34 -17 58 -20 184 -19 167 1 331 27 474 75
49 16 90 28 91 27 15 -25 65 -164 61 -173 -5 -15 -196 -68 -331 -91 -141 -25
-447 -26 -525 -2 -126 39 -200 115 -208 214 -4 52 -6 54 -33 54 l-29 0 0 90 0
90 393 0 c320 0 397 3 412 14 16 11 17 17 7 29 -38 46 -408 57 -622 19 -63
-12 -118 -18 -122 -14 -8 8 -49 165 -44 169 7 7 145 33 221 41 130 15 390 13
497 -3z m1213 -187 c-7 -67 -37 -206 -54 -250 -9 -24 -6 -28 28 -52 123 -85
192 -8 229 251 l15 113 100 0 100 0 -7 -67 c-3 -38 -15 -102 -26 -143 l-19
-75 37 -38 c20 -21 64 -55 97 -74 33 -20 62 -38 64 -40 7 -5 -72 -163 -81
-163 -16 0 -114 53 -161 88 l-48 35 -47 -46 c-98 -96 -211 -104 -332 -22 -29
19 -54 35 -56 35 -2 0 -25 -15 -51 -34 -84 -59 -156 -70 -251 -40 -181 59
-221 274 -69 368 59 36 164 46 241 22 27 -8 52 -13 56 -11 4 2 13 39 19 82 22
138 7 123 122 123 l101 0 -7 -62z m-2610 28 c113 -31 194 -87 231 -158 22 -43
35 -155 32 -288 l-3 -125 -100 0 -100 0 -5 162 c-5 154 -6 163 -29 187 -51 54
-202 76 -401 57 -109 -11 -312 -41 -376 -56 -20 -4 -23 2 -39 85 -10 50 -16
92 -14 95 6 6 176 34 301 50 148 19 419 14 503 -9z"/>
<path d="M10161 15741 c-25 -25 -27 -58 -5 -91 46 -69 112 -67 137 3 14 39
-27 87 -86 102 -18 5 -31 1 -46 -14z"/>
<path d="M10340 15392 c0 -6 7 -15 15 -20 26 -14 124 -152 155 -217 16 -33 36
-101 45 -150 9 -50 23 -109 32 -132 l15 -43 147 0 c161 0 171 3 171 56 0 115
-149 310 -308 403 -110 64 -272 125 -272 103z"/>
<path d="M10000 15351 c-81 -26 -129 -53 -214 -121 -133 -107 -277 -294 -280
-363 l-1 -32 196 -3 196 -2 6 127 c6 147 22 204 71 254 58 58 115 161 89 158
-5 0 -33 -9 -63 -18z"/>
<path d="M10211 15313 c-61 -71 -125 -202 -165 -339 -20 -66 -36 -126 -36
-132 0 -9 65 -12 240 -12 l240 0 0 26 c0 41 -66 228 -120 342 -55 116 -85 162
-105 162 -7 0 -32 -21 -54 -47z"/>
<path d="M9521 14238 l-1 -328 109 0 109 0 -105 318 c-57 174 -106 322 -108
327 -2 6 -4 -137 -4 -317z"/>
<path d="M9500 13640 l0 -150 185 0 c102 0 185 3 185 7 0 4 -21 72 -47 150
l-47 143 -138 0 -138 0 0 -150z"/>
<path d="M9136 13373 l-58 -4 6 -42 c3 -23 9 -99 13 -169 l6 -128 62 0 c34 0
103 3 153 6 l92 7 0 143 c0 78 -4 154 -10 168 -9 26 -11 26 -107 24 -54 -1
-124 -3 -157 -5z"/>
<path d="M9545 13357 c-3 -6 -6 -77 -8 -157 l-2 -144 25 -13 c17 -9 76 -13
193 -13 l167 0 0 170 0 170 -185 0 c-139 0 -187 -3 -190 -13z"/>
<path d="M9252 12890 l-134 -5 64 -89 c84 -119 137 -172 184 -185 23 -7 193
-14 422 -18 327 -5 382 -4 378 8 -2 8 -25 78 -51 157 l-47 142 -341 -2 c-188
-1 -402 -5 -475 -8z"/>
<path d="M9581 12463 c-104 -2 -190 -8 -197 -13 -16 -14 -22 -49 -34 -203 -19
-247 -80 -1240 -120 -1962 -98 -1765 -192 -3304 -206 -3383 l-6 -32 408 2 409
3 11 160 c12 168 16 203 41 325 23 114 41 142 112 173 34 15 98 34 143 43 196
40 317 -19 410 -199 37 -71 48 -128 61 -330 l12 -172 409 -3 408 -2 -6 52
c-27 231 -86 996 -131 1713 -19 308 -37 575 -39 594 -3 19 -182 574 -398 1233
-438 1337 -408 1266 -389 922 l10 -179 -24 -21 c-27 -25 -67 -31 -296 -40
l-156 -6 -7 268 c-7 294 0 392 33 470 31 71 65 100 139 119 69 18 108 14 160
-16 21 -12 32 -14 32 -6 0 7 -36 121 -81 254 l-81 243 -221 -2 c-122 -2 -305
-4 -406 -5z m735 -2469 c52 -25 121 -108 139 -167 12 -39 19 -135 27 -375 5
-178 8 -325 5 -328 -2 -2 -108 -6 -235 -7 -178 -1 -234 1 -244 11 -10 10 -14
94 -16 377 l-3 365 56 52 c31 29 73 61 93 70 47 22 134 23 178 2z m39 -2062
c223 -107 445 -313 445 -412 0 -57 -76 -26 -204 85 -151 130 -342 245 -406
245 -40 0 -122 -43 -179 -94 -28 -25 -60 -46 -70 -46 -20 0 -48 -28 -79 -81
-12 -20 -46 -59 -76 -87 -58 -55 -102 -74 -117 -51 -16 26 -9 55 26 114 38 63
143 195 154 195 4 0 57 30 117 66 217 132 241 137 389 66z"/>
<path d="M10154 9836 c-30 -13 -31 -16 -37 -92 -7 -91 3 -463 13 -469 3 -2 45
-9 92 -15 140 -19 131 -40 126 282 -3 270 -3 270 -27 289 -28 23 -119 26 -167
5z"/>
<path d="M10156 11847 c-45 -45 -50 -193 -7 -228 21 -17 21 -20 6 -42 -17 -26
-34 -140 -35 -228 l0 -56 57 -12 c31 -6 73 -11 94 -11 66 0 69 13 72 277 2
204 0 232 -16 256 -24 37 -59 58 -106 64 -33 5 -44 1 -65 -20z"/>
<path d="M11430 8699 c0 -80 82 -1231 122 -1701 l11 -138 52 0 c58 0 69 -8 80
-57 9 -45 -1 -69 -35 -83 -18 -8 -33 -23 -37 -37 -5 -21 31 -367 54 -515 l6
-38 298 0 c233 0 299 3 299 13 0 13 -839 2579 -846 2586 -2 2 -4 -11 -4 -30z"/>
<path d="M10155 7432 c-53 -25 -161 -141 -176 -189 -8 -25 -13 -153 -16 -365
l-5 -328 273 0 272 0 -6 248 c-7 261 -20 410 -39 475 -14 46 -83 119 -139 148
-58 29 -116 33 -164 11z"/>
<path d="M9028 6741 c-26 -4 -50 -9 -53 -12 -11 -12 -55 -442 -55 -541 l0 -58
168 0 c183 0 499 16 525 26 9 3 19 22 22 42 14 81 17 92 45 127 17 22 34 59
41 93 13 64 23 82 49 82 31 0 39 24 46 138 l7 112 -374 -1 c-206 -1 -395 -5
-421 -8z"/>
<path d="M10632 6686 c-25 -136 -16 -156 78 -156 32 0 52 -5 56 -13 2 -7 -7
-45 -20 -85 -16 -45 -21 -74 -15 -78 6 -3 34 -3 64 1 61 7 56 17 76 -133 l12
-94 326 7 c179 4 328 9 329 11 2 1 -7 137 -20 301 l-23 298 -426 3 -426 2 -11
-64z"/>
<path d="M9930 6411 c-53 -8 -70 -17 -70 -36 0 -36 38 -40 330 -39 157 1 315
4 353 8 61 7 67 10 67 31 0 15 -8 25 -22 30 -30 10 -600 15 -658 6z"/>
<path d="M9740 6164 l0 -46 478 4 c262 2 485 8 495 12 12 6 17 17 15 35 -3 25
-6 26 -88 33 -47 3 -268 6 -492 7 l-408 1 0 -46z"/>
<path d="M12112 4881 c-35 -17 -48 -31 -70 -78 l-27 -58 0 -285 0 -285 27 -58
c23 -50 34 -61 74 -79 37 -16 59 -19 98 -14 64 7 95 29 126 92 25 49 25 49 25
344 0 295 0 295 -25 344 -32 64 -63 86 -131 92 -41 4 -64 0 -97 -15z"/>
<path d="M10645 3840 c-4 -6 -2 -17 4 -24 19 -23 50 -25 74 -6 l22 18 -28 11
c-36 14 -64 14 -72 1z"/>
</g>
</svg>
